<?xml version="1.0" encoding="UTF-8"?>
<svg xmlns="http://www.w3.org/2000/svg" viewBox="0 0 2400 2400">
  <defs>
    <style>
      .cls-1 {
        fill: #fff;
      }

      .cls-2 {
        stroke: #000;
        stroke-miterlimit: 10;
        stroke-width: 20px;
      }
    </style>
  </defs>
  <rect class="cls-1" y="0" width="2400" height="2400"/>
  <g id="Calque_1" data-name="Calque 1">
    <g>
      <path class="cls-2" d="M1223.67,1394.82c-9.7,4.88-18.59,4-26.96-.21L128.4,857.13c-10.12-5.09-15.1-15.76-15.51-24.97s3.83-22.3,14.49-27.29l1067.27-499.97c11.34-5.31,20.12-5.35,31.45-.04l1067.28,499.97c10.69,5.01,14.85,17.93,14.58,27.16-.34,11.57-6.85,20.79-18.17,26.49l-1066.11,536.34ZM1210.1,1334.01l999.96-502.31-999.5-467.74L210.75,831.62l999.35,502.39Z"/>
      <path class="cls-2" d="M2056.12,1395.21l236.98,110.87c9.98,4.67,14.62,15.9,14.88,25.05.29,10.37-4.34,21.7-15.04,27.09l-1067.07,536.88c-11.63,5.85-20.83,5.07-32.29-.7L126.55,1557.51c-9.92-4.99-13.91-17.18-13.69-26.32s5-20.51,14.74-25.08l231.02-108.28c15.88-7.44,33.31-.18,40.08,14.19,7.31,15.51.47,34.08-16.04,40.76l-170.97,80.32,998.51,502.36,998.85-502.32-178.74-84.03c-13.13-9.19-18-24.07-11.8-37.74,5.62-12.4,22.12-23.43,37.61-16.19Z"/>
      <path class="cls-2" d="M126.64,1148.58l233.87-109.66c15.87-7.44,33.32,2.63,38.94,16.79,5.96,15.01-.58,31.88-16.37,38.7l-171.44,80.53,998.94,502.43,998.61-502.43-172.83-81.22c-17.14-6.27-24.63-24.04-17.97-40.3s25.04-22.66,42.03-14.69l233.2,109.47c9.94,4.67,14.39,17.03,14.34,25.71-.06,9.18-4.4,20.73-14.52,25.82l-1069.69,538.15c-10.16,5.11-19.41,3.66-29.2-1.27L126.11,1199.07c-9.4-4.73-13.23-17.04-13.21-25.09s3.44-20.57,13.74-25.39Z"/>
    </g>
  </g>
</svg>