<?xml version="1.0" encoding="UTF-8"?>
<svg xmlns="http://www.w3.org/2000/svg" viewBox="0 0 2400 2400">
  <defs>
    <style>
      .cls-1 {
        fill: #fff;
      }

      .cls-2 {
        stroke: #000;
        stroke-miterlimit: 10;
        stroke-width: 20px;
      }
    </style>
  </defs>
  <rect class="cls-1" y="0" width="2400" height="2400"/>
  <g id="Calque_1" data-name="Calque 1">
    <g>
      <path class="cls-2" d="M370.87,2129.75l.18-850.42.17-703.93c1.06-15.33,11.82-28.86,27.7-28.88l228.79-.19.09-277.61c0-15.61,13.56-26.99,28.75-27.91l1346.31.03c16.22,0,28.19,14.03,28.19,29.71l.02,1856.34c0,17.9-11.31,32.3-30.16,32.3H400.41c-16.59,0-28.24-12.12-29.53-29.44ZM1172.72,787.28l798.21-.09.07-486.59-1283.13-.04-.23,245.78h256.79c8.53,1.71,14.42,4.83,20.46,11.49l207.83,229.45ZM1156.71,847.18c-9.72-2.01-14.59-4.31-19.89-10.17l-208.92-230.69-496.89.06.02,375.77h1539.93s.1-134.99.1-134.99l-814.34.02ZM430.96,1041.89v1057.38h1540.11v-1057.38H430.96Z"/>
      <path class="cls-2" d="M1749.8,734.33l-547.86.04c-17.31,0-30.09-12.99-30.79-28.72-.69-15.58,10.99-31.29,29.04-31.29h550.32c17.31,0,28.73,14.68,28.92,29.56s-11.21,30.39-29.63,30.39Z"/>
      <path class="cls-2" d="M1751.72,577.32h-532.29c-17.66,0-30.2-12.79-30.83-28.86-.62-15.79,11.19-31.12,29.3-31.12h532.34c16.68,0,28.12,13.44,29.1,27.82,1.06,15.6-9.41,29.62-27.62,32.16Z"/>
    </g>
  </g>
</svg>