<?xml version="1.0" encoding="UTF-8"?>
<svg xmlns="http://www.w3.org/2000/svg" viewBox="0 0 2400 2400">
  <defs>
    <style>
      .cls-1 {
        fill: #fff;
      }

      .cls-2 {
        stroke: #000;
        stroke-miterlimit: 10;
        stroke-width: 25px;
      }
    </style>
  </defs>
  <rect class="cls-1" y="0" width="2400" height="2400"/>
  <g id="Calque_1" data-name="Calque 1">
    <path class="cls-2" d="M1598.14,1798.77l-142.25,142.26c-75.23,75.24-154.85,143.83-236.45,211.57-10.01,8.31-24.34,9.23-34.61.81-88.75-72.75-173.01-149.01-255.89-228.77l-112.77-112.76c-138.14-143.4-272.51-301.53-380.68-469.23-80.33-124.53-150.7-261.58-186.41-405.78-27.96-112.88-29.05-229.35.29-341.88,14.27-54.74,36.16-105.44,66.61-152.63,115.41-178.88,332.17-240.08,532.42-178.31,150.68,47.4,271.61,153.79,352.76,289.09,35.47-61.55,77.34-114.84,128.53-160.91,93.36-83.83,210.24-135.67,335.7-145.44,69.72-5.38,137.48,3,202.91,26.05,146.67,51.66,241.39,169.38,282.9,317.17,28.52,101.55,31.54,206.85,11.03,310.45-28.14,142.19-93.52,278.44-169.22,401.48-107.77,175.18-251.8,347.53-394.87,496.82ZM2103.81,913.79c23.14-98.94,23.81-200.4-.8-298.98-33.2-133.01-117.34-240.57-247.16-288.69-61.2-22.69-124.86-30.64-190.49-25-118.97,10.23-228.87,62.66-314.27,145.55-51.52,50.01-92.5,108.46-123.52,173.12-5.31,11.07-13.5,18.03-25.26,18.26-10.54.21-20.05-5.29-25.35-15.69-113.81-223.45-356.68-387.94-611.45-307.3-136.56,43.23-226.57,151.74-262.88,288.63-28.57,107.69-26.97,219.44.93,327.32,52.87,204.42,183.72,404.3,313.71,569.55,70.27,89.33,145,173.58,223.12,256.16l156.45,156.22c66.61,63.68,133.99,124.18,204.71,184.08,71.9-60.88,141.65-120.91,207.81-187.01l153.48-153.35c212.03-224.08,469.88-538.99,540.96-842.87Z"/>
  </g>
</svg>