<?xml version="1.0" encoding="UTF-8"?>
<svg xmlns="http://www.w3.org/2000/svg" viewBox="0 0 2400 2400">
  <defs>
    <style>
      .cls-1 {
        fill: #fff;
      }

      .cls-2 {
        stroke: #000;
        stroke-miterlimit: 10;
        stroke-width: 25px;
      }
    </style>
  </defs>
  <rect class="cls-1" width="2400" height="2400"/>
  <g id="Calque_1" data-name="Calque 1">
    <path class="cls-2" d="M318.08,2209.88c22.97,0,41.58-18.63,41.55-41.59l-.08-80.79c-.21-217.84,83.37-425.47,227.1-582.12,324.75-353.94,877.36-374.27,1226.25-42.85l35.38,35.17c147.14,156.82,233.77,361.91,233.94,578.1l.07,92.57c.02,22.94,18.62,41.52,41.55,41.52h0c22.95,0,41.56-18.61,41.55-41.56l-.02-94.84c-2.55-255.79-111.39-498.32-296.82-673.07-137.41-129.5-308.13-214.58-498.06-245.99,86.63-29.53,161.96-77.42,223.12-141.67,197.47-207.46,196.84-531.19,3.6-738.16-203.8-218.29-546.86-229.98-764.8-23.23-155.6,147.61-210.27,375.91-133.54,579.54,59.52,157.97,188.03,277.48,349.98,327.38-181.3,34.82-343.78,118.03-475.04,241.83l-39.81,39.76c-162.86,172.46-257.26,400.02-257.49,638.21l-.08,90.22c-.02,22.97,18.59,41.59,41.55,41.59h.09ZM725.67,641.82c0-263.72,213.83-477.51,477.61-477.51s477.61,213.79,477.61,477.51-213.83,477.51-477.61,477.51-477.61-213.79-477.61-477.51Z"/>
  </g>
</svg>