<?xml version="1.0" encoding="UTF-8"?>
<svg xmlns="http://www.w3.org/2000/svg" viewBox="0 0 2400 2400">
  <defs>
    <style>
      .cls-1 {
        fill: #fff;
      }

      .cls-2 {
        stroke: #000;
        stroke-miterlimit: 10;
        stroke-width: 25px;
      }
    </style>
  </defs>
  <rect class="cls-1" y="0" width="2400" height="2400"/>
  <g id="Calque_1" data-name="Calque 1">
    <g>
      <path class="cls-2" d="M1235.63,2063.98l-228.17-229.33-32.89-33.95-227.27-228.05-34.8-35.9-225.33-226.15-42.4-43.56c-3.26-3.35-6.67-8.32-7.86-13.98L242.67,330.55c-2.33-11.05.86-20.09,7.5-26.95,6.01-6.21,15.06-10.95,26.12-8.84l910.53,173.73c6.83,1.3,11.84,5.09,16.62,9.87l950.54,950.39c9.54,9.54,9.49,28.83-.03,38.35l-739.04,738.87c-13.54,13.54-32.81,6.06-44.07-5.32l-135.2-136.66ZM1056.45,1800.26l217.29,217.91,122.06,123.47,693.8-693.66-923.43-923.3-856.73-163.62,183.09,869.63,46.07,47.89,225.35,226.15,33.83,34.93,225.33,226.11,33.34,34.51Z"/>
      <path class="cls-2" d="M1094.9,872.02c0,132.81-107.69,240.47-240.52,240.47s-240.52-107.66-240.52-240.47,107.69-240.47,240.52-240.47,240.52,107.66,240.52,240.47ZM1035.83,871.99c0-100.22-81.26-181.46-181.49-181.46s-181.49,81.24-181.49,181.46,81.26,181.46,181.49,181.46,181.49-81.24,181.49-181.46Z"/>
    </g>
  </g>
</svg>