<?xml version="1.0" encoding="UTF-8"?>
<svg xmlns="http://www.w3.org/2000/svg" viewBox="0 0 2400 2400">
  <defs>
    <style>
      .cls-1 {
        fill: #fff;
      }
    </style>
  </defs>
  <rect class="cls-1" width="2400" height="2400"/>
  <g id="Calque_1" data-name="Calque 1">
    <g>
      <g>
        <path d="M163.55,1175.89c.21-.02.43-.03.65-.05l-.68.1s.02-.04.03-.06Z"/>
        <path d="M1202.15,65.56c-.26,0-.53,0-.79.01-13.9.37-29.44,8.54-31.05,24.88l-25.79,261.95c-8.5,86.35-24.72,169.04-46.51,252.84-16.26,62.54-38.42,120.87-69.85,177.05-62.88,112.39-158.36,201.03-275.45,254.71-50,22.92-100.14,38.48-154.37,49.68-144.89,29.92-290.01,48.02-437.32,58.32-17.08,1.2-27.82,15.54-28.69,29.86-.91,15,8.48,31.15,25.87,32.53,121.4,9.67,240.94,21.21,361.24,40.59,44.23,7.12,85.23,14.1,128.2,25.41,110.45,29.06,209.46,86.2,287.24,169.75,91.76,98.56,141.24,214.9,171.44,345.26,12.53,54.08,22.57,106.08,28.31,161.56l34.91,337.54c1.65,15.98,18.5,24.52,31.69,24.54.02,0,.04,0,.05,0,12.04,0,29.98-6.52,31.71-23.23l34.65-334.28c5.83-56.23,15.81-109,28.39-163.84,12.41-54.12,28.11-105.04,49.51-156.22,70.8-169.3,203.32-296.98,379.38-352.1,43.44-13.6,85.27-22.05,130.56-29.72,129.31-21.89,258.06-34.72,388.89-44.97,18.25-1.43,28.29-19.38,26.07-34.78-2.26-15.67-14.07-26.97-31.37-28.12-144.72-9.64-287.08-28.03-429.38-56.9-58.94-11.96-113.68-28.94-167.64-54.67-108.06-51.54-196.77-132.67-258.16-235.45-37.21-62.29-62.59-128.24-80.45-198.71-20.81-82.12-36.58-162.99-44.91-247.46l-25.84-261.85c-1.55-15.69-17.51-24.17-30.54-24.17h0ZM1201.37,2084.06l-24.82-196.75c-9.63-76.31-27.79-148.79-53.06-221.28-22.23-63.78-50.77-123.01-88.77-178.66-67.46-98.79-159.09-176.24-268.3-225.23-53.27-23.9-107-39.84-164.48-50.9-77.08-14.83-152.6-24.36-231.15-35.13,85.78-12.91,166.58-24.7,249.4-42.66,235.62-51.1,411.08-199.08,497.37-423.86,18.45-48.06,30.69-95.23,42.24-145.56,19.98-87.07,31.16-173.75,41.52-262.11l20.23,148.47c9.59,70.38,25.37,137.62,45.71,205.65,56.98,190.6,182.86,345.81,364.92,428.08,51.11,23.1,102.5,39.35,157.54,50.96,81.02,17.09,159.94,28.88,243.57,41.29-87.49,11.67-173.07,22-259.34,40.74-87.26,18.96-168.11,53.24-241.45,103.78-143.92,101.66-227.02,241.5-273.27,410.11-17.19,62.65-29.74,124.11-37.65,188.6l-20.19,164.45h0Z"/>
      </g>
      <path d="M680.01,2016.26c-.72,14.4-7.41,24.71-20.75,24.9s-20.74-10.03-21.59-24.32c-2.93-49.48-12.84-97.73-29.22-144.26-34.21-97.14-129.52-128.39-225.97-135.33-12.09-.87-21.06-6.75-21.72-18.69-.61-11.08,7.33-19.75,19.4-20.65,69.27-5.14,144.76-23.64,193.45-73.95,45.42-46.93,63.48-141.67,66.67-207.98.6-12.45,12.92-19.33,23.13-18.1,11.77,1.42,18.82,10.1,19.35,22.76,2.3,54.56,13.36,107.03,35.63,156.52,14.1,31.33,34.52,55.75,63.86,73.64,25.11,15.31,51.9,25.94,80.82,33.34l86.8,13.92c10.47,1.68,13.42,14.64,11.84,21.84-2.61,11.92-11.3,13.59-22.41,15.74l-95.81,18.5c-65.23,16.97-113.84,63.02-137.42,125.86-16.32,43.51-23.69,88.28-26.07,136.24ZM658.72,1965.71c7-41.46,15.34-79.23,33.13-116.21,27.06-56.23,73.46-97.03,133.08-116.16l69.78-16.73c-71.41-12.36-148.78-40.89-186.95-105.77-25.85-43.94-37.89-92.1-46.44-141.46-8.51,47.49-19.27,90-40.1,131.21-16.64,31.5-41.33,55.9-71.57,74.74-35.47,21.72-73.5,32.93-114.84,41.7,30.58,7.7,56.95,13.73,83.91,25.82,54.94,24.63,96.21,69.19,115.64,126.51l24.36,96.36Z"/>
      <path d="M1770.98,934.51c-.49,12.51-7.4,20.3-17.01,22.49-10.5,2.39-22.19-3.92-24.16-15.68l-15.73-94.18c-5.14-30.81-17.48-58.78-33.6-85.38-19.59-32.33-47.62-56.03-82.86-70.32-41.58-16.87-84.96-23.8-129.61-28.3-11.27-1.13-15.63-13.75-14.02-22.76,1.77-9.9,9.77-15.99,20.9-16.89,96.26-7.84,191.1-39.87,225.59-136.01,16.7-46.55,26.38-93.81,27.85-143.7.39-13.21,6.75-23.36,19.76-24.19,12.52-.79,22.18,8.91,22.68,22.51,2.64,71.69,19.29,157.59,69.45,209.87,45.54,47.47,129.95,64.52,195.66,69.51,10.06.76,14.95,10.56,14.9,18.27-.06,9.87-5.6,18.43-16.4,19.64-39.74,4.47-78.04,10.36-115.27,23.75-110.23,39.65-143.75,139.44-148.13,251.36ZM1748.54,888.21c7.47-43.53,15.26-82.05,34.81-118.99,20.93-40.93,52.49-72.72,93.02-94.33,32.13-17.7,65.69-25.97,103.03-33.82-35.6-8.04-67.59-15.83-98.87-31.18-87.01-39.21-116.47-123.72-130.84-212.59-7.57,40.74-15.76,76.64-31.3,112.68-16.9,40.01-45.04,71.65-82.76,93.39-34.9,21.31-72.61,31.33-114.57,40.41l79.88,21.46c51.38,19.56,91.23,57.49,114.13,107.67,17.89,36.74,25.28,75.1,33.47,115.3Z"/>
    </g>
  </g>
</svg>