<?xml version="1.0" encoding="UTF-8"?>
<svg xmlns="http://www.w3.org/2000/svg" viewBox="0 0 2400 2400">
  <defs>
    <style>
      .cls-1 {
        fill: #fff;
      }
    </style>
  </defs>
  <rect class="cls-1" width="2400" height="2400"/>
  <g id="Calque_1" data-name="Calque 1">
    <g>
      <path d="M2178.78,1741c.06,154.57-124.48,277.03-275.23,277.25-150.23.22-276.06-121.41-276.05-274.89l.06-1322.2c0-152.62,124.48-273.58,274.15-274.45,148.43-.86,276.47,119.32,276.53,271.92l.54,1322.36ZM2097.19,1745.23l.23-1322.69c.02-108.5-88.07-194.23-194.05-194.53-104.51-.3-194.47,84.84-194.5,192.38l-.39,1319.67c-.03,108.44,85.76,195.94,193.23,196.93,103.24.95,195.46-83.2,195.48-191.76Z"/>
      <path d="M1510.68,1749.34c.07,151.4-129.03,269.22-275.01,268.9-147.56-.32-274.59-118.86-274.59-270.31l.02-762.53c0-150.17,126.26-268.6,272.61-269.81,145.77-1.2,276.55,115,276.62,265.84l.36,767.89ZM1429.96,1745.48l-.11-758.29c-.02-106.64-90.75-190.54-194.2-190.3-103.36.24-193.55,83.51-193.56,190.37l-.07,758.91c0,106.87,90.14,190.51,193.62,190.79,103.57.29,194.34-83.95,194.32-191.49Z"/>
      <path d="M806.97,1737.23c.25,155.5-121.7,279.86-273.98,280.97-151.79,1.11-277.68-121.46-277.56-276.37l.3-374.43c.12-152.54,125.98-272.47,275.24-272.51,149.46-.03,275.18,120,275.42,272.51l.59,369.83ZM725.26,1743.57l-.02-374.51c0-108.36-90.45-194.02-196.22-192.91-105.54,1.1-192.47,87.31-192.46,194.97l.06,371.1c.02,108.42,88.03,194.64,194.38,194.69,104.75.05,194.26-84.87,194.25-193.34Z"/>
      <path d="M2140.45,2253.22l-1873.94.07c-22.98,0-39.88-16.96-41.32-38.55-1.3-19.61,14.37-42.68,37.67-42.68l1874.52-.06c22.36,0,39.27,16.64,41.11,37.43,1.73,19.6-13.21,43.78-38.05,43.78Z"/>
    </g>
  </g>
</svg>